<?xml version="1.0" encoding="UTF-8"?>
<!DOCTYPE svg PUBLIC "-//W3C//DTD SVG 1.1//EN" "http://www.w3.org/Graphics/SVG/1.1/DTD/svg11.dtd">
<!-- Creator: CorelDRAW X7 -->
<svg xmlns="http://www.w3.org/2000/svg" xml:space="preserve" width="11.4932mm" height="11.2093mm" version="1.1" style="shape-rendering:geometricPrecision; text-rendering:geometricPrecision; image-rendering:optimizeQuality; fill-rule:evenodd; clip-rule:evenodd"
viewBox="0 0 145 141"
 xmlns:xlink="http://www.w3.org/1999/xlink">
 <defs>
  <style type="text/css">
   <![CDATA[
    .fil0 {fill:#FEFEFE}
   ]]>
  </style>
 </defs>
 <g id="__x0023_Layer_x0020_1">
  <metadata id="CorelCorpID_0Corel-Layer"/>
  <path class="fil0" d="M72 0c-40,0 -72,32 -72,72 0,32 21,60 50,69 3,1 5,-1 5,-3 0,-2 -1,-7 -1,-13 -20,5 -24,-9 -24,-9 -3,-9 -8,-11 -8,-11 -7,-4 0,-4 0,-4 8,0 12,7 12,7 6,11 17,8 21,6 0,-4 2,-8 4,-10 -16,-1 -33,-8 -33,-35 0,-8 3,-15 8,-20 -1,-2 -4,-9 0,-19 0,0 6,-2 20,7 6,-1 12,-2 18,-2 7,0 13,1 19,2 13,-9 20,-7 20,-7 3,10 1,17 0,19 5,5 8,12 8,20 0,28 -17,34 -33,35 2,3 5,7 5,14 0,10 -1,17 -1,20 0,2 2,4 5,3 29,-9 50,-37 50,-69 0,-40 -33,-72 -73,-72z"/>
 </g>
</svg>
