<?xml version="1.0" encoding="UTF-8"?>
<!DOCTYPE svg PUBLIC "-//W3C//DTD SVG 1.1//EN" "http://www.w3.org/Graphics/SVG/1.1/DTD/svg11.dtd">
<!-- Creator: CorelDRAW X7 -->
<svg xmlns="http://www.w3.org/2000/svg" xml:space="preserve" width="210mm" height="297mm" version="1.1" style="shape-rendering:geometricPrecision; text-rendering:geometricPrecision; image-rendering:optimizeQuality; fill-rule:evenodd; clip-rule:evenodd"
viewBox="0 0 21000 29700"
 xmlns:xlink="http://www.w3.org/1999/xlink">
 <defs>
  <style type="text/css">
   <![CDATA[
    .str0 {stroke:#0B0C23;stroke-width:7.62}
    .fil0 {fill:#0B0C23}
   ]]>
  </style>
 </defs>
 <g id="Слой_x0020_1">
  <metadata id="CorelCorpID_0Corel-Layer"/>
  <path class="fil0 str0" d="M10401 14639c-29,14 -57,28 -77,51 -19,23 -29,53 -18,95 31,124 137,229 254,272 32,10 67,4 91,-19 21,-20 40,-54 46,-83 5,-20 -7,-34 -23,-42l-96 -48c-24,-6 -37,24 -45,42 -38,-24 -67,-52 -87,-93 17,-9 46,-23 40,-47l-45 -105c-6,-17 -23,-27 -40,-23l0 0z"/>
 </g>
</svg>
