<?xml version="1.0" encoding="UTF-8"?>
<!DOCTYPE svg PUBLIC "-//W3C//DTD SVG 1.1//EN" "http://www.w3.org/Graphics/SVG/1.1/DTD/svg11.dtd">
<!-- Creator: CorelDRAW X7 -->
<svg xmlns="http://www.w3.org/2000/svg" xml:space="preserve" width="3.9672mm" height="4.2354mm" version="1.1" style="shape-rendering:geometricPrecision; text-rendering:geometricPrecision; image-rendering:optimizeQuality; fill-rule:evenodd; clip-rule:evenodd"
viewBox="0 0 396 423"
 xmlns:xlink="http://www.w3.org/1999/xlink">
 <defs>
  <style type="text/css">
   <![CDATA[
    .fil0 {fill:#FEFEFE}
   ]]>
  </style>
 </defs>
 <g id="Слой_x0020_1">
  <metadata id="CorelCorpID_0Corel-Layer"/>
  <path class="fil0" d="M99 1c-29,14 -56,28 -76,51 -19,23 -29,53 -18,95 31,124 136,228 253,271 32,10 67,4 91,-19 21,-20 40,-53 46,-82 5,-20 -7,-34 -23,-42l-96 -48c-24,-6 -37,24 -45,42 -38,-24 -67,-52 -87,-93 17,-9 46,-23 40,-47l-45 -105c-6,-17 -23,-27 -40,-23l0 0z"/>
 </g>
</svg>
