<?xml version="1.0" encoding="UTF-8"?>
<!DOCTYPE svg PUBLIC "-//W3C//DTD SVG 1.1//EN" "http://www.w3.org/Graphics/SVG/1.1/DTD/svg11.dtd">
<!-- Creator: CorelDRAW X7 -->
<svg xmlns="http://www.w3.org/2000/svg" xml:space="preserve" width="210mm" height="75.5211mm" version="1.1" style="shape-rendering:geometricPrecision; text-rendering:geometricPrecision; image-rendering:optimizeQuality; fill-rule:evenodd; clip-rule:evenodd"
viewBox="0 0 21000 7552"
 xmlns:xlink="http://www.w3.org/1999/xlink">
 <defs>
  <style type="text/css">
   <![CDATA[
    .str0 {stroke:#FEFEFE;stroke-width:300}
    .fil1 {fill:none}
    .fil0 {fill:#FEFEFE}
   ]]>
  </style>
 </defs>
 <g id="Слой_x0020_1">
  <metadata id="CorelCorpID_0Corel-Layer"/>
  <path class="fil0" d="M10842 2332l999 -64c23,163 65,285 133,372 110,137 262,205 463,205 149,0 266,-34 346,-106 76,-57 122,-148 122,-243 0,-91 -42,-179 -114,-236 -76,-68 -255,-136 -536,-197 -460,-103 -790,-240 -984,-414 -194,-164 -304,-403 -296,-657 0,-175 53,-350 152,-494 114,-164 270,-293 456,-365 201,-87 482,-133 835,-133 433,0 764,80 992,243 228,160 365,418 406,771l-987 57c-27,-152 -80,-262 -167,-334 -88,-72 -202,-106 -350,-106 -122,0 -213,26 -273,76 -57,45 -95,114 -92,190 0,57 31,110 76,144 50,45 167,87 354,125 459,99 786,198 987,300 202,103 346,228 433,376 92,152 137,327 133,506 0,212 -60,425 -182,604 -125,186 -300,330 -505,418 -217,95 -490,144 -817,144 -577,0 -976,-110 -1200,-334 -225,-224 -358,-506 -384,-848zm-10603 1125l0 -3396 1752 0c322,0 573,26 744,83 167,54 315,164 414,312 110,163 164,353 160,551 11,334 -160,653 -452,820 -114,65 -240,110 -369,133 95,27 190,72 274,126 64,53 118,114 167,178 57,65 106,137 148,213l509 984 -1193 0 -562 -1045c-72,-133 -133,-220 -190,-262 -76,-53 -167,-80 -258,-80l-91 0 0 1379 -1053 0 0 4zm1053 -2021l444 0c95,-8 186,-23 277,-46 69,-11 130,-49 171,-106 103,-137 88,-330 -38,-448 -68,-57 -201,-88 -391,-88l-463 0 0 688zm-1292 4931l999 -65c23,164 65,285 133,373 106,136 262,209 464,209 148,0 265,-35 345,-107 76,-61 122,-148 122,-243 0,-91 -42,-179 -114,-236 -76,-68 -255,-136 -540,-197 -459,-103 -790,-239 -984,-414 -193,-163 -303,-403 -296,-657 0,-175 53,-350 152,-494 114,-164 270,-293 456,-365 201,-87 482,-133 836,-133 433,0 763,80 991,243 228,164 361,418 403,771l-988 57c-26,-152 -80,-262 -167,-334 -84,-72 -201,-106 -349,-102 -122,0 -213,26 -274,79 -61,46 -95,114 -91,190 0,57 30,110 76,145 49,45 167,87 353,125 460,99 786,198 988,300 201,103 346,228 433,376 91,152 137,327 137,502 0,212 -65,421 -183,600 -125,186 -300,330 -505,418 -216,95 -490,144 -817,144 -577,0 -976,-110 -1200,-334 -224,-228 -350,-509 -380,-851l0 0z"/>
  <path class="fil0" d="M5052 6101l920 277c-50,232 -152,452 -293,646 -129,171 -300,304 -494,391 -197,88 -448,133 -752,133 -368,0 -672,-53 -904,-159 -235,-107 -437,-297 -608,-566 -171,-270 -254,-616 -254,-1037 0,-563 148,-996 448,-1296 300,-300 722,-452 1269,-452 429,0 763,88 1010,258 243,175 426,441 547,798l-927 205c-22,-79 -57,-159 -102,-228 -57,-79 -129,-140 -217,-186 -87,-45 -186,-64 -285,-64 -239,0 -421,95 -547,288 -95,141 -144,365 -144,669 0,376 57,634 171,775 114,141 274,209 482,209 202,0 354,-57 456,-167 103,-118 179,-281 224,-494l0 0zm2147 -2006l1048 0 0 1189 1148 0 0 -1189 1056 0 0 3396 -1056 0 0 -1375 -1148 0 0 1375 -1048 0 0 -3396z"/>
  <path class="fil0" d="M10306 5793c0,-554 156,-987 464,-1295 307,-308 740,-464 1291,-464 566,0 999,152 1307,456 308,304 460,730 460,1277 0,399 -69,721 -202,976 -129,251 -330,456 -577,593 -254,140 -570,212 -946,212 -384,0 -699,-60 -950,-182 -258,-129 -471,-331 -611,-577 -156,-266 -236,-597 -236,-996l0 0zm1049 4c0,342 64,589 190,741 125,148 300,224 520,224 224,0 399,-72 524,-220 126,-149 187,-411 187,-791 0,-319 -65,-554 -194,-699 -129,-148 -304,-220 -524,-220 -194,-7 -380,76 -510,224 -129,148 -193,395 -193,741l0 0zm3548 -4c0,-554 156,-987 463,-1295 308,-308 741,-464 1292,-464 566,0 1003,152 1307,456 304,304 459,730 459,1277 0,399 -68,721 -201,976 -129,251 -330,456 -577,593 -255,140 -570,212 -946,212 -384,0 -699,-60 -950,-182 -258,-129 -471,-331 -612,-577 -155,-266 -235,-597 -235,-996l0 0zm1048 4c0,342 65,589 190,741 126,148 300,224 521,224 224,0 399,-72 524,-220 125,-149 186,-411 186,-791 0,-319 -64,-554 -194,-699 -129,-148 -304,-220 -524,-220 -194,-7 -384,76 -509,224 -129,148 -194,395 -194,741l0 0z"/>
  <polygon class="fil0" points="18314,4095 19363,4095 19363,6656 21000,6656 21000,7491 18310,7491 18310,4095 "/>
  <ellipse class="fil1 str0" transform="matrix(0.798625 -0.601829 0.601829 0.798625 15974.3 2327.62)" rx="2393" ry="1968"/>
  <path class="fil0" d="M14907 2078l380 -266 467 665c80,106 140,220 186,346 27,95 19,197 -19,288 -49,114 -129,209 -236,278 -125,87 -231,136 -322,152 -88,15 -179,0 -263,-38 -91,-46 -171,-111 -231,-194l326 -304c27,42 61,80 99,110 27,19 57,30 91,30 27,0 53,-11 72,-26 38,-23 65,-69 61,-114 -11,-65 -38,-129 -80,-179l-531 -748 0 0zm1139 422l346 -274c38,46 87,80 141,99 76,23 155,7 220,-42 45,-30 83,-72 99,-125 22,-69 -16,-145 -84,-167 -11,-4 -23,-8 -34,-8 -46,-4 -125,15 -243,65 -194,79 -346,110 -460,98 -110,-11 -213,-68 -273,-163 -46,-65 -69,-141 -73,-217 0,-87 23,-174 73,-246 72,-103 159,-190 266,-259 159,-110 300,-163 421,-163 122,0 236,57 342,175l-342 269c-68,-87 -197,-106 -285,-38l-11 12c-38,23 -65,57 -80,99 -11,30 -4,64 15,91 15,19 38,34 65,34 30,4 83,-12 159,-46 190,-79 335,-125 433,-140 84,-15 171,-8 251,26 72,31 133,84 175,148 53,76 84,168 87,263 4,98 -22,193 -76,277 -68,102 -155,190 -258,258 -209,145 -380,205 -517,183 -148,-23 -269,-99 -357,-209l0 0z"/>
 </g>
</svg>
